<svg id="star" xmlns="http://www.w3.org/2000/svg" width="19.001" height="19.001" viewBox="0 0 19.001 19.001">
  <path id="Vector" d="M7.612.93,8.754,3.214a1.41,1.41,0,0,0,.922.681l2.07.344c1.324.221,1.635,1.181.681,2.129L10.818,7.977a1.409,1.409,0,0,0-.337,1.175l.461,1.992c.363,1.577-.474,2.187-1.869,1.363l-1.94-1.149a1.4,1.4,0,0,0-1.285,0l-1.94,1.149c-1.389.824-2.232.208-1.869-1.363L2.5,9.152A1.409,1.409,0,0,0,2.16,7.977L.551,6.368C-.4,5.42-.092,4.46,1.232,4.239L3.3,3.9a1.413,1.413,0,0,0,.915-.681L5.36.93C5.983-.31,7-.31,7.612.93Z" transform="translate(3.012 3.061)" fill="#ffcb33" stroke="#ffcb33" stroke-linecap="round" stroke-linejoin="round" stroke-width="1.5"/>
  <path id="Vector-2" data-name="Vector" d="M0,0H19V19H0Z" fill="#ffcb33" opacity="0"/>
</svg>
